<?xml version="1.0" encoding="utf-8"?>
<!-- Generator: Adobe Illustrator 19.0.0, SVG Export Plug-In . SVG Version: 6.00 Build 0)  -->
<svg version="1.1" id="Layer_1" xmlns="http://www.w3.org/2000/svg" xmlns:xlink="http://www.w3.org/1999/xlink" x="0px" y="0px"
	 viewBox="0 0 96 96" style="enable-background:new 0 0 96 96;" xml:space="preserve">
<style type="text/css">
	.st0{fill:#95A5A6;}
	.st1{fill:#BDC3C7;}
	.st2{fill:#7F8C8D;}
</style>
<g id="XMLID_1_">
	<path id="XMLID_3_" class="st0" d="M18.2,43.9v16.3v8.1c0,3,2.4,5.4,5.4,5.4h51.5c3,0,5.4-2.4,5.4-5.4v-8.1V43.9H18.2z"/>
	<path id="XMLID_4_" class="st1" d="M15.5,19.6v24.4v19V71c0,3,2.4,5.4,5.4,5.4h51.5c3,0,5.4-2.4,5.4-5.4v-8.1v-19V19.6H15.5z"/>
	<path id="XMLID_9_" class="st2" d="M20.9,25v13.5h2.7v-8.1l5.4,8.1h2.7V25H29v8.1L23.6,25H20.9z M34.5,25v13.5h10.8v-2.7h-8.1v-2.7
		h5.4v-2.7h-5.4v-2.7h8.1V25H34.5z M48,25v13.5h2.7l2.7-5.4l2.7,5.4h2.7V25h-2.7v8.1l-2.7-5.4l-2.7,5.4V25H48z M65.6,25
		c-2.2,0-4.1,1.8-4.1,4.1s1.8,4.1,4.1,4.1h2.7c0.7,0,1.4,0.6,1.4,1.4c0,0.7-0.6,1.4-1.4,1.4h-2.6h-4.1v2.7h4.1h2.6
		c2.2,0,4.1-1.8,4.1-4.1c0-2.2-1.8-4.1-4.1-4.1H67h-1.4c-0.7,0-1.4-0.6-1.4-1.4c0-0.7,0.6-1.4,1.4-1.4H67h1.4h4.1V25h-4.1H65.6z"/>
	<rect id="XMLID_10_" x="20.9" y="43.9" class="st0" width="24.4" height="19"/>
	<rect id="XMLID_11_" x="48" y="54.8" class="st0" width="24.4" height="2.7"/>
	<rect id="XMLID_12_" x="20.9" y="65.6" class="st0" width="24.4" height="2.7"/>
	<rect id="XMLID_13_" x="48" y="60.2" class="st0" width="24.4" height="2.7"/>
	<rect id="XMLID_14_" x="48" y="49.4" class="st0" width="24.4" height="2.7"/>
	<rect id="XMLID_15_" x="48" y="43.9" class="st0" width="24.4" height="2.7"/>
	<path id="XMLID_16_" class="st0" d="M15.5,68.3V71c0,3,2.4,5.4,5.4,5.4h51.5c3,0,8.1-2.4,8.1-5.4v-2.7c0,3-5.1,5.4-8.1,5.4H20.9
		C17.9,73.7,15.5,71.3,15.5,68.3z"/>
	<rect id="XMLID_17_" x="48" y="65.6" class="st0" width="24.4" height="2.7"/>
</g>
</svg>
